<svg xmlns="http://www.w3.org/2000/svg" width="19.897" height="18.173" viewBox="0 0 19.897 18.173">
  <g id="chart" transform="translate(75.25 -34.75)">
    <g id="Group_7" data-name="Group 7" transform="translate(-80 -926.362)">
      <path id="Path_10" data-name="Path 10" d="M5.431,961.362a.431.431,0,0,0-.431.431V978.6a.431.431,0,0,0,.431.431H23.966a.431.431,0,1,0,0-.862H5.862v-16.38A.431.431,0,0,0,5.431,961.362Zm15.733,2.371a1.515,1.515,0,0,0-1.509,1.509,1.48,1.48,0,0,0,.31.9L17.406,969.8a1.548,1.548,0,0,0-1.414.418l-1.805-1.051a1.469,1.469,0,0,0,.081-.478,1.509,1.509,0,1,0-3.017,0,1.48,1.48,0,0,0,.31.9L9,973.25a1.492,1.492,0,0,0-.337-.034,1.506,1.506,0,1,0,1.084.458l2.5-3.57a1.461,1.461,0,0,0,1.441-.236l1.906,1.111a1.5,1.5,0,0,0-.034.3,1.509,1.509,0,1,0,2.593-1.051l2.5-3.57a1.489,1.489,0,0,0,.512.094,1.509,1.509,0,0,0,0-3.017Zm0,.862a.647.647,0,1,1-.647.647A.64.64,0,0,1,21.164,964.595Zm-8.405,3.448a.647.647,0,1,1-.647.647A.64.64,0,0,1,12.759,968.043Zm4.31,2.586a.647.647,0,1,1-.647.647A.64.64,0,0,1,17.069,970.63Zm-8.405,3.448a.647.647,0,1,1-.647.647A.64.64,0,0,1,8.664,974.078Z" transform="translate(0 0)" fill="#fff" stroke="#fff" stroke-width="0.5"/>
    </g>
  </g>
</svg>
