<svg xmlns="http://www.w3.org/2000/svg" width="24" height="24" viewBox="0 0 24 24">
  <g id="Disconnect" transform="translate(12559 -523)">
    <rect id="Rectangle_103" data-name="Rectangle 103" width="24" height="24" transform="translate(-12559 523)" fill="none"/>
    <g id="noun-disconnect-3367979" transform="translate(-12555 524)">
      <path id="Path_857" data-name="Path 857" d="M228.542,232.307a4.7,4.7,0,0,1-6.746-5.828l2.426-5.887a.522.522,0,1,0-.965-.4l-2.43,5.887a5.742,5.742,0,0,0,8.247,7.123.522.522,0,1,0-.532-.9Z" transform="translate(-220.393 -212.871)" fill="#2358e5" stroke="#2358e5" stroke-width="1"/>
      <path id="Path_858" data-name="Path 858" d="M335.016,103.207a5.685,5.685,0,0,0-5.115.37.522.522,0,1,0,.533.9,4.7,4.7,0,0,1,6.743,5.829l-2.388,5.795a.522.522,0,0,0,.283.681.508.508,0,0,0,.2.04.522.522,0,0,0,.482-.323l2.388-5.795h0a5.747,5.747,0,0,0-3.123-7.493Z" transform="translate(-323.109 -102.768)" fill="#2358e5" stroke="#2358e5" stroke-width="1"/>
      <path id="Path_859" data-name="Path 859" d="M275.661,111.618a.522.522,0,1,0-.964.4L282.64,131.1a.522.522,0,0,0,.482.322.536.536,0,0,0,.2-.042.522.522,0,0,0,.282-.683Z" transform="translate(-271.419 -110.787)" fill="#2358e5" stroke="#2358e5" stroke-width="1"/>
    </g>
  </g>
</svg>
