<svg xmlns="http://www.w3.org/2000/svg" width="20.4" height="19.349" viewBox="0 0 20.4 19.349">
  <g id="earn2" transform="translate(-14.791 -16.374)">
    <path id="Path_7" data-name="Path 7" d="M55.536,56.455a1.025,1.025,0,1,0,1.025-1.025A1.026,1.026,0,0,0,55.536,56.455Zm1.025-.361a.361.361,0,1,1-.361.361A.361.361,0,0,1,56.561,56.094Z" transform="translate(-27.046 -25.918)" fill="#fff" stroke="#fff" stroke-width="0.5"/>
    <path id="Path_8" data-name="Path 8" d="M15.041,24.171v9.37a1.934,1.934,0,0,0,1.932,1.932H34.609a.332.332,0,0,0,.332-.332V22.571a.332.332,0,0,0-.332-.332H33.375c.014-.153.023-.307.023-.462a5.151,5.151,0,0,0-6.7-4.914,5.1,5.1,0,0,0-2.994-.026,5.148,5.148,0,0,0-6.609,4.941c0,.155.009.309.023.462h-.144A1.934,1.934,0,0,0,15.041,24.171Zm19.236,8.062H29.485a1.695,1.695,0,1,1,0-3.39h4.792Zm0-4.054H29.485a2.359,2.359,0,1,0,0,4.718h4.792v1.912h-17.3a1.27,1.27,0,0,1-1.268-1.268V25.628a1.924,1.924,0,0,0,1.268.475h17.3Zm0-5.276v2.536H31.869a5.147,5.147,0,0,0,1.4-2.536Zm-6.032-5.615a4.485,4.485,0,0,1,2.586,8.151H25.659a4.485,4.485,0,0,1,2.586-8.151Zm-3.09,0a4.536,4.536,0,0,1,.514.033,5.146,5.146,0,0,0-1.048,8.118H22.57a4.485,4.485,0,0,1,2.586-8.151Zm-2.909,0c.121,0,.242.005.362.015a5.147,5.147,0,0,0-1.077,8.136H19.66a4.485,4.485,0,0,1,2.586-8.151ZM17.221,22.9a5.147,5.147,0,0,0,1.4,2.536H16.973a1.268,1.268,0,0,1,0-2.536Z" fill="#fff" stroke="#fff" stroke-width="0.5"/>
    <path id="X" d="M.905,4.455l.967-1.634.964,1.634h.908L2.358,2.209,3.713,0h-.9L1.872,1.609.93,0h-.9L1.389,2.209,0,4.455Z" transform="translate(26.619 19.082)" fill="#fff" stroke="#fff" stroke-width="0.5"/>
  </g>
</svg>
