<svg xmlns="http://www.w3.org/2000/svg" width="118" height="118" viewBox="0 0 118 118">
  <g id="history" transform="translate(-719 -342)">
    <rect id="Rectangle_78" data-name="Rectangle 78" width="118" height="118" transform="translate(719 342)" fill="none"/>
    <g id="history-2" data-name="history" transform="translate(743 366)">
      <g id="Group_6" data-name="Group 6">
        <path id="Path_9" data-name="Path 9" d="M76.088,41.294a34.794,34.794,0,1,1-61.3-22.528l-4.41.056h-.026a2.047,2.047,0,1,1-.025-4.093l9.363-.117h.079a1.05,1.05,0,0,1,.136.007l.071.011a1.671,1.671,0,0,1,.236.04l.067.019a1.989,1.989,0,0,1,1.2.932l.025.046.018.033a2.08,2.08,0,0,1,.111.252c.01.027.022.053.03.079s.012.053.019.081a1.912,1.912,0,0,1,.044.2c.007.038.016.076.02.115v.029l.909,9.319a2.047,2.047,0,0,1-1.832,2.242c-.067,0-.136.01-.2.01a2.047,2.047,0,0,1-2.037-1.849L18.1,21.193a30.691,30.691,0,1,0,23.2-10.6,2.047,2.047,0,1,1,0-4.093A34.834,34.834,0,0,1,76.088,41.294Z" transform="translate(-6.5 -6.5)" fill="#102c78"/>
        <path id="Path_22" data-name="Path 22" d="M39.28,41.619q.016.1.041.192A1.847,1.847,0,0,0,39.38,42a1.722,1.722,0,0,0,.079.186,1.831,1.831,0,0,0,.091.169,1.908,1.908,0,0,0,.111.164,2.037,2.037,0,0,0,.273.292,1.906,1.906,0,0,0,.15.124,1.993,1.993,0,0,0,.183.119c.031.019.059.042.091.06L54.1,50.229a2.047,2.047,0,0,0,1.883-3.635L43.346,40.044V21.318a2.047,2.047,0,1,0-4.093,0V41.294c0,.037.01.072.011.109A1.264,1.264,0,0,0,39.28,41.619Z" transform="translate(-8.5 -3.5)" fill="#2358e5"/>
      </g>
    </g>
  </g>
</svg>
