<svg xmlns="http://www.w3.org/2000/svg" width="19.094" height="19.099" viewBox="0 0 19.094 19.099">
  <g id="history" transform="translate(88.5 -82.5)">
    <g id="Group_6" data-name="Group 6" transform="translate(-95 76)">
      <path id="Path_9" data-name="Path 9" d="M25.594,16.047A9.547,9.547,0,1,1,8.775,9.866l-1.21.015H7.558a.562.562,0,0,1-.007-1.123l2.569-.032h.022a.288.288,0,0,1,.037,0l.019,0a.459.459,0,0,1,.065.011l.018.005a.546.546,0,0,1,.33.256l.007.013,0,.009a.571.571,0,0,1,.03.069c0,.007.006.015.008.022s0,.015.005.022a.525.525,0,0,1,.012.055c0,.01,0,.021.006.031v.008l.249,2.557a.562.562,0,0,1-.5.615l-.055,0a.562.562,0,0,1-.559-.507l-.135-1.367a8.421,8.421,0,1,0,6.365-2.908.562.562,0,1,1,0-1.123,9.558,9.558,0,0,1,9.547,9.547Zm-10.1.089q0,.027.011.053a.507.507,0,0,0,.016.051.473.473,0,0,0,.022.051.5.5,0,0,0,.025.046.524.524,0,0,0,.03.045.559.559,0,0,0,.075.08.523.523,0,0,0,.041.034.547.547,0,0,0,.05.033c.009.005.016.012.025.016L19.561,18.5a.562.562,0,1,0,.517-1L16.61,15.7V10.566a.562.562,0,1,0-1.123,0v5.481c0,.01,0,.02,0,.03A.347.347,0,0,0,15.494,16.136Z" transform="translate(0 0)" fill="#fff"/>
    </g>
  </g>
</svg>
