<svg xmlns="http://www.w3.org/2000/svg" width="36" height="36" viewBox="0 0 36 36">
  <g id="refresh" transform="translate(-1212 -198)">
    <rect id="Rectangle_21" data-name="Rectangle 21" width="36" height="36" rx="18" transform="translate(1212 198)" fill="#f1f7ff"/>
    <g id="refresh-2" data-name="refresh" transform="translate(1212.823 198.5)">
      <g id="Group_741" data-name="Group 741" transform="translate(8.531 8.5)">
        <path id="Path_787" data-name="Path 787" d="M14.032,24.281a.552.552,0,0,1-.464.629l-3.662.534H9.826a.553.553,0,1,1-.077-1.1l2.186-.32A8.645,8.645,0,0,1,17.168,8.5a5.8,5.8,0,0,1,.8.037.548.548,0,0,1,.5.6.556.556,0,0,1-.6.5c-.228-.022-.464-.033-.7-.033a7.544,7.544,0,0,0-4.4,13.675l-.368-2.5a.558.558,0,0,1,1.1-.158ZM22.4,10.266l2.186-.32a.558.558,0,1,0-.158-1.1l-3.662.534a.552.552,0,0,0-.464.629l.545,3.669a.548.548,0,0,0,.545.471h.081a.552.552,0,0,0,.467-.626l-.368-2.5a7.544,7.544,0,0,1-4.405,13.672,4.866,4.866,0,0,1-.7-.033.554.554,0,0,0-.1,1.1c.265.026.534.037.8.037A8.645,8.645,0,0,0,22.4,10.266Z" transform="translate(-8.531 -8.5)" fill="#2149b9"/>
      </g>
    </g>
  </g>
</svg>
