<svg xmlns="http://www.w3.org/2000/svg" width="118" height="118" viewBox="0 0 118 118">
  <g id="Swap" transform="translate(-270 -342)">
    <rect id="Rectangle_75" data-name="Rectangle 75" width="118" height="118" transform="translate(270 342)" fill="none"/>
    <g id="Group_10" data-name="Group 10" transform="translate(282 367)">
      <g id="swap2" transform="translate(0 7)">
        <g id="Group_5" data-name="Group 5" transform="translate(0 0)">
          <g id="Group_4" data-name="Group 4">
            <g id="Group_3" data-name="Group 3">
              <path id="Path_5" data-name="Path 5" d="M64.424,2H10.714A4.719,4.719,0,0,0,6,6.714V34.995H9.142V6.714a1.574,1.574,0,0,1,1.571-1.571h53.71V2" transform="translate(2.965 -2)" fill="#102c78"/>
              <path id="Path_6" data-name="Path 6" d="M19.148.571l-8.318,9.7L2.513.571.294,2.474,10.83,14.765,21.367,2.474,19.148.571" transform="translate(-0.294 20.475)" fill="#102c78"/>
            </g>
          </g>
        </g>
      </g>
      <g id="swap2-2" data-name="swap2" transform="translate(27.611 24.62)">
        <g id="Group_5-2" data-name="Group 5" transform="translate(0 0)">
          <g id="Group_4-2" data-name="Group 4">
            <g id="Group_3-2" data-name="Group 3">
              <path id="Path_5-2" data-name="Path 5" d="M9,34.995H62.71a4.719,4.719,0,0,0,4.714-4.714V2H64.281V30.281a1.574,1.574,0,0,1-1.571,1.571H9v3.142" transform="translate(-9 0.245)" fill="#102c78"/>
              <path id="Path_6-2" data-name="Path 6" d="M2.513,14.765l8.318-9.7,8.318,9.7,2.219-1.9L10.83.571.294,12.862l2.219,1.9" transform="translate(46.022 -0.571)" fill="#102c78"/>
            </g>
          </g>
        </g>
      </g>
      <g id="Ellipse_1" data-name="Ellipse 1" transform="translate(0 48)" fill="#fff" stroke="#2358e5" stroke-width="2">
        <circle cx="10.5" cy="10.5" r="10.5" stroke="none"/>
        <circle cx="10.5" cy="10.5" r="9.5" fill="none"/>
      </g>
      <g id="Ellipse_2" data-name="Ellipse 2" transform="translate(73)" fill="#fff" stroke="#2358e5" stroke-width="2">
        <circle cx="10.5" cy="10.5" r="10.5" stroke="none"/>
        <circle cx="10.5" cy="10.5" r="9.5" fill="none"/>
      </g>
      <g id="Ellipse_3" data-name="Ellipse 3" transform="translate(78 5)" fill="#fff" stroke="#2358e5" stroke-width="2">
        <circle cx="5.5" cy="5.5" r="5.5" stroke="none"/>
        <circle cx="5.5" cy="5.5" r="4.5" fill="none"/>
      </g>
      <path id="X" d="M1.532,7.542,3.169,4.776,4.8,7.542H6.338L3.992,3.74,6.286,0H4.764L3.169,2.724,1.574,0H.052l2.3,3.74L0,7.542Z" transform="translate(7.331 54.729)" fill="#2358e5" stroke="#2358e5" stroke-width="0.2"/>
    </g>
  </g>
</svg>
