<svg id="XDC" xmlns="http://www.w3.org/2000/svg" width="38" height="38" viewBox="0 0 38 38">
  <path id="Combined_Shape" data-name="Combined Shape" d="M19,38A19.15,19.15,0,0,1,6.213,33.125,18.921,18.921,0,0,1,0,21.133L4.293,19,0,16.867A18.92,18.92,0,0,1,6.213,4.875a19.209,19.209,0,0,1,25.575,0A18.921,18.921,0,0,1,38,16.868L33.707,19,38,21.133a18.92,18.92,0,0,1-6.212,11.992A19.148,19.148,0,0,1,19,38Z" fill="#2149b9"/>
  <path id="X" d="M2.956,14.547,6.113,9.212,9.26,14.547h2.966L7.7,7.214,12.125,0H9.189L6.113,5.255,3.036,0H.1L4.534,7.214,0,14.547Z" transform="translate(12.855 11.761)" fill="#fff"/>
</svg>
