<svg id="XDC-Icon" xmlns="http://www.w3.org/2000/svg" width="16.894" height="16.894" viewBox="0 0 16.894 16.894">
  <g id="Combined_Shape" data-name="Combined Shape" transform="translate(0 0)" fill="none">
    <path d="M8.447,16.894a8.513,8.513,0,0,1-5.685-2.167A8.412,8.412,0,0,1,0,9.4l1.909-.948L0,7.5A8.412,8.412,0,0,1,2.762,2.167a8.54,8.54,0,0,1,11.37,0A8.412,8.412,0,0,1,16.894,7.5l-1.909.948,1.909.948a8.412,8.412,0,0,1-2.762,5.331A8.513,8.513,0,0,1,8.447,16.894Z" stroke="none"/>
    <path d="M 8.446930885314941 15.89406108856201 C 10.30451107025146 15.89406108856201 12.08674144744873 15.21483135223389 13.46534061431885 13.98149108886719 C 14.65899276733398 12.91360187530518 15.46964454650879 11.50638389587402 15.7913293838501 9.964128494262695 L 12.73821067810059 8.447211265563965 L 15.79135894775391 6.930017471313477 C 15.46967220306396 5.387790679931641 14.65900135040283 3.980529308319092 13.46534061431885 2.912631034851074 C 12.08672142028809 1.679251074790955 10.30448055267334 1.000001072883606 8.446930885314941 1.000001072883606 C 6.589470863342285 1.000001072883606 4.807291030883789 1.679251074790955 3.428700923919678 2.912621021270752 C 2.23504900932312 3.980536699295044 1.424387812614441 5.387797355651855 1.102702975273132 6.930017471313477 L 4.155930995941162 8.447251319885254 L 1.102726459503174 9.964071273803711 C 1.424411416053772 11.50633716583252 2.235059022903442 12.91355419158936 3.4287109375 13.98146057128906 C 4.807271003723145 15.21482086181641 6.589450836181641 15.89406108856201 8.446930885314941 15.89406108856201 M 8.446930885314941 16.8940601348877 C 6.343091011047363 16.8940601348877 4.324120998382568 16.12436103820801 2.761940956115723 14.726731300354 C 1.211451053619385 13.33957099914551 0.2305810153484344 11.4461612701416 1.102111855288967e-05 9.395291328430176 L 1.908560991287231 8.447131156921387 L 1.021118123389897e-06 7.498711109161377 C 0.2305810153484344 5.447771072387695 1.211501002311707 3.554471015930176 2.761940956115723 2.167351007461548 C 4.324141025543213 0.7697110176086426 6.343111038208008 1.021118123389897e-06 8.446930885314941 1.021118123389897e-06 C 10.55084133148193 1.021118123389897e-06 12.5698709487915 0.7697110176086426 14.13210105895996 2.16736102104187 C 15.6826114654541 3.554511070251465 16.66349029541016 5.447891235351562 16.8940601348877 7.498711109161377 L 14.98550128936768 8.447131156921387 L 16.89404106140137 9.395371437072754 C 16.66346168518066 11.44637107849121 15.68253135681152 13.33969116210938 14.13209056854248 14.72677135467529 C 12.56989097595215 16.12437057495117 10.55086135864258 16.8940601348877 8.446930885314941 16.8940601348877 Z" stroke="none" fill="#fff"/>
  </g>
  <path id="X" d="M1.314,6.467,2.718,4.1l1.4,2.372H5.435L3.424,3.207,5.39,0H4.085L2.718,2.336,1.35,0H.045L2.016,3.207,0,6.467Z" transform="translate(5.715 5.229)" fill="#fff"/>
</svg>
