<svg xmlns="http://www.w3.org/2000/svg" width="26" height="26" viewBox="0 0 26 26">
  <g id="XDC" transform="translate(-673 -220)">
    <circle id="Ellipse_107" data-name="Ellipse 107" cx="13" cy="13" r="13" transform="translate(673 220)" fill="#102c78"/>
    <g id="XDC-Icon" transform="translate(678.419 224.706)">
      <g id="Combined_Shape" data-name="Combined Shape" fill="none">
        <path d="M8.221,16.442a8.285,8.285,0,0,1-5.533-2.109A8.187,8.187,0,0,1,0,9.144l1.857-.923L0,7.3A8.186,8.186,0,0,1,2.688,2.109a8.311,8.311,0,0,1,11.066,0A8.186,8.186,0,0,1,16.442,7.3l-1.857.923,1.857.923a8.186,8.186,0,0,1-2.688,5.189A8.285,8.285,0,0,1,8.221,16.442Z" stroke="none"/>
        <path d="M 8.220785140991211 15.44175434112549 C 10.02201461791992 15.44175434112549 11.75019454956055 14.78312492370605 13.08697509765625 13.5872049331665 C 14.23912525177002 12.55644702911377 15.02330017089844 11.1995153427124 15.33808517456055 9.712118148803711 L 12.33698463439941 8.221055030822754 L 15.33811378479004 6.729717254638672 C 15.02332782745361 5.242341995239258 14.23913383483887 3.885369539260864 13.08697509765625 2.854594707489014 C 11.75018501281738 1.658644795417786 10.02200508117676 1.000004768371582 8.220785140991211 1.000004768371582 C 6.419634819030762 1.000004768371582 4.69151496887207 1.658644795417786 3.354754686355591 2.854594707489014 C 2.202613353729248 3.885378122329712 1.418428421020508 5.242355823516846 1.103644371032715 6.729718208312988 L 4.10483455657959 8.221095085144043 L 1.103665471076965 9.712060928344727 C 1.418442964553833 11.19946765899658 2.202613353729248 12.55639171600342 3.354754686355591 13.58717441558838 C 4.69151496887207 14.78311443328857 6.419634819030762 15.44175434112549 8.220785140991211 15.44175434112549 M 8.220785140991211 16.4417552947998 C 6.173264980316162 16.4417552947998 4.208354949951172 15.69265460968018 2.687994718551636 14.33244514465332 C 1.179024815559387 12.98242473602295 0.2244047820568085 11.13970470428467 1.4786376596021e-05 9.143744468688965 L 1.857464790344238 8.220974922180176 L 4.786376848642249e-06 7.297945022583008 C 0.2244147807359695 5.301914691925049 1.179064750671387 3.459304809570312 2.687994718551636 2.10932469367981 C 4.208364963531494 0.7491047978401184 6.173285007476807 4.786376848642249e-06 8.220785140991211 4.786376848642249e-06 C 10.26836490631104 4.786376848642249e-06 12.2333345413208 0.7491047978401184 13.75373458862305 2.10932469367981 C 15.26273441314697 3.459344863891602 16.21735572814941 5.302034854888916 16.4417552947998 7.297945022583008 L 14.58428478240967 8.220974922180176 L 16.44173431396484 9.143824577331543 C 16.21732521057129 11.13991451263428 15.26265525817871 12.98254489898682 13.75372505187988 14.33248519897461 C 12.23334503173828 15.69266510009766 10.26838493347168 16.4417552947998 8.220785140991211 16.4417552947998 Z" stroke="none" fill="#fff"/>
      </g>
      <path id="X" d="M1.279,6.294,2.645,3.986,4.006,6.294H5.29L3.332,3.121,5.246,0H3.976L2.645,2.274,1.314,0H.043L1.962,3.121,0,6.294Z" transform="translate(5.562 5.089)" fill="#fff"/>
    </g>
  </g>
</svg>
