<svg xmlns="http://www.w3.org/2000/svg" width="17" height="17" viewBox="0 0 17 17">
  <g id="info" transform="translate(-1247 -549)">
    <g id="Ellipse_104" data-name="Ellipse 104" transform="translate(1247 549)" fill="#fff" stroke="#2149b9" stroke-width="1.2">
      <circle cx="8.5" cy="8.5" r="8.5" stroke="none"/>
      <circle cx="8.5" cy="8.5" r="7.9" fill="none"/>
    </g>
    <path id="Path_788" data-name="Path 788" d="M2.605-2.864v-.06a5.053,5.053,0,0,1,.2-1.511,2.3,2.3,0,0,1,.537-.91,4.337,4.337,0,0,1,.835-.641A2.566,2.566,0,0,0,4.7-6.411a1.886,1.886,0,0,0,.37-.569A1.819,1.819,0,0,0,5.21-7.7a1.536,1.536,0,0,0-.229-.845,1.535,1.535,0,0,0-.612-.552,1.854,1.854,0,0,0-.85-.194,1.9,1.9,0,0,0-.786.169,1.521,1.521,0,0,0-.631.532,1.851,1.851,0,0,0-.293.95H.557A2.8,2.8,0,0,1,1-9.083,2.613,2.613,0,0,1,2.056-10a3.322,3.322,0,0,1,1.464-.318,3.177,3.177,0,0,1,1.524.348,2.513,2.513,0,0,1,1,.955A2.682,2.682,0,0,1,6.4-7.636a2.791,2.791,0,0,1-.167.989,2.5,2.5,0,0,1-.477.79,3.325,3.325,0,0,1-.748.616,3.128,3.128,0,0,0-.7.574,1.843,1.843,0,0,0-.383.713A4,4,0,0,0,3.8-2.923v.06ZM3.241.08A.861.861,0,0,1,2.61-.184a.861.861,0,0,1-.263-.631.861.861,0,0,1,.263-.631.861.861,0,0,1,.631-.263.861.861,0,0,1,.631.263.861.861,0,0,1,.263.631.856.856,0,0,1-.122.447.935.935,0,0,1-.323.326A.852.852,0,0,1,3.241.08Z" transform="translate(1252 563)" fill="#2149b9"/>
  </g>
</svg>
