<svg xmlns="http://www.w3.org/2000/svg" width="17.958" height="17" viewBox="0 0 17.958 17">
  <g id="noun_Home_3874019" transform="translate(-16.182 -18.05)">
    <path id="Path_2" data-name="Path 2" d="M33.971,25.347,25.518,18.17a.559.559,0,0,0-.691,0l-8.453,7.177a.534.534,0,0,0-.159.585.52.52,0,0,0,.505.346h.718v8.241a.533.533,0,0,0,.532.532h5.184a.533.533,0,0,0,.532-.532V29.866a.363.363,0,0,1,.372-.372h2.18a.363.363,0,0,1,.372.372v4.652a.533.533,0,0,0,.532.532h5.21a.533.533,0,0,0,.532-.532V26.3H33.6a.545.545,0,0,0,.505-.346A.578.578,0,0,0,33.971,25.347Zm-2.127.425v8.214H27.7v-4.12a1.43,1.43,0,0,0-1.435-1.435H24.109a1.43,1.43,0,0,0-1.436,1.435v4.12H18.5V25.772a.543.543,0,0,0-.372-.505l7.045-6.008,7.018,5.981A.555.555,0,0,0,31.845,25.772Z" fill="#fafafa"/>
  </g>
</svg>
