<svg xmlns="http://www.w3.org/2000/svg" width="118" height="118" viewBox="0 0 118 118">
  <g id="Pool" transform="translate(-415 -342)">
    <rect id="Rectangle_76" data-name="Rectangle 76" width="118" height="118" transform="translate(415 342)" fill="none"/>
    <g id="earn3" transform="translate(438 363)">
      <path id="Path_14" data-name="Path 14" d="M84.278,293.753a11.037,11.037,0,0,1-11.024-11.024,1.152,1.152,0,1,0-2.3,0,11.035,11.035,0,0,1-11.022,11.024,1.152,1.152,0,1,0,0,2.3,11.033,11.033,0,0,1,11.022,11.022,1.152,1.152,0,0,0,2.3,0,11.035,11.035,0,0,1,11.024-11.022,1.152,1.152,0,0,0,0-2.3ZM72.1,301.661a13.408,13.408,0,0,0-6.751-6.757,13.409,13.409,0,0,0,6.751-6.757,13.416,13.416,0,0,0,6.759,6.757A13.416,13.416,0,0,0,72.1,301.661Z" transform="translate(-58.73 -238.513)" fill="#2358e5"/>
      <path id="Path_15" data-name="Path 15" d="M370.364,120.372a6.975,6.975,0,0,1-6.968-6.966,1.152,1.152,0,0,0-2.3,0,6.975,6.975,0,0,1-6.968,6.966,1.152,1.152,0,0,0,0,2.3,6.977,6.977,0,0,1,6.968,6.968,1.152,1.152,0,1,0,2.3,0,6.979,6.979,0,0,1,6.968-6.968,1.152,1.152,0,1,0,0-2.3Zm-8.118,4.8a9.341,9.341,0,0,0-3.648-3.646,9.347,9.347,0,0,0,3.648-3.648,9.341,9.341,0,0,0,3.646,3.648,9.337,9.337,0,0,0-3.646,3.646Z" transform="translate(-298.585 -100.585)" fill="#2358e5"/>
      <path id="Path_16" data-name="Path 16" d="M241.223,218.349c-4.872-4.872-16.832-.555-27.215,9.84S199.3,250.532,204.177,255.4l4.574,4.576a7.5,7.5,0,0,0,5.514,1.992c5.878,0,14.193-4.338,21.693-11.838A46.031,46.031,0,0,0,246.437,234.9c2.035-5.283,1.805-9.539-.64-11.982Zm3.775,13.5-2.73-2.728a16.651,16.651,0,0,0,.925-5.549l.969.971c1.432,1.434,1.7,4.038.836,7.31Zm-29.353-2.035c6.938-6.938,14.914-11.206,20.038-11.206a5.353,5.353,0,0,1,3.92,1.367c3.825,3.827-.681,14.8-9.84,23.957a43.725,43.725,0,0,1-14.428,9.959c-4.317,1.665-7.791,1.615-9.528-.118C201.97,249.949,206.476,238.979,215.645,229.817Zm-5.273,28.533-.954-.954c.1,0,.185.022.277.022a17.1,17.1,0,0,0,5.157-.925l2.738,2.736C214.452,260.052,211.864,259.843,210.371,258.351Zm23.955-9.839a44.526,44.526,0,0,1-14.3,9.905l-2.824-2.824a51.5,51.5,0,0,0,24.163-24.1l2.813,2.813A43.829,43.829,0,0,1,234.327,248.512Z" transform="translate(-175.641 -185.389)" fill="#102c78"/>
      <path id="Path_17" data-name="Path 17" d="M239.218,279.136c4.13,0,10.479-4.156,15.486-9.162a40.53,40.53,0,0,0,7.739-10.358c2.255-4.661,1.441-6.927.361-8.007s-3.344-1.9-8.009.37a40.5,40.5,0,0,0-10.358,7.739c-6.415,6.4-11.433,15.021-8.1,18.356A3.932,3.932,0,0,0,239.218,279.136Zm6.844-17.8a38.132,38.132,0,0,1,9.735-7.293,9.929,9.929,0,0,1,4.069-1.2,1.821,1.821,0,0,1,1.306.4c.586.585.681,2.3-.8,5.375a38.069,38.069,0,0,1-7.3,9.735c-7.19,7.192-13.651,9.561-15.11,8.1s.912-7.919,8.1-15.11Z" transform="translate(-202.618 -213.249)" fill="#102c78"/>
      <path id="Path_18" data-name="Path 18" d="M106.56,145.848a5.607,5.607,0,0,0,4.086-1.48l3.2-3.2c3.548-3.548.522-12.13-6.886-19.538a32.6,32.6,0,0,0-10.782-7.415c-3.834-1.48-6.944-1.295-8.756.527l-3.2,3.2c-3.548,3.548-.522,12.13,6.89,19.54C96.418,142.788,102.332,145.848,106.56,145.848ZM89.049,116.364a3.424,3.424,0,0,1,2.49-.838,10.968,10.968,0,0,1,3.812.832,30.367,30.367,0,0,1,9.979,6.894c6.827,6.827,9.11,14.058,6.888,16.277-1.11,1.11-3.411,1.11-6.3,0a30.473,30.473,0,0,1-9.988-6.894C89.11,125.819,86.827,118.587,89.049,116.364Zm-3.2,3.2.118-.118c.279,4.175,3.289,9.772,8.342,14.825a32.572,32.572,0,0,0,10.784,7.414,13.536,13.536,0,0,0,4.055.925l-.129.129c-2.22,2.22-9.454-.061-16.277-6.888S83.626,121.789,85.847,119.567Z" transform="translate(-78.297 -101.338)" fill="#102c78"/>
      <path id="Path_19" data-name="Path 19" d="M270.66,70.268c3.054,0,7.214-2.159,11.033-5.98,5.412-5.412,7.486-11.5,4.822-14.165s-8.745-.6-14.165,4.82-7.486,11.5-4.822,14.167A4.277,4.277,0,0,0,270.66,70.268Zm3.318-13.688c3.472-3.47,7.223-5.31,9.419-5.31a2.06,2.06,0,0,1,1.491.49c1.435,1.437-.322,6.407-4.822,10.913s-9.474,6.259-10.913,4.822.324-6.422,4.826-10.924Z" transform="translate(-227.963 -48.967)" fill="#102c78"/>
    </g>
  </g>
</svg>
