<svg xmlns="http://www.w3.org/2000/svg" width="36" height="36" viewBox="0 0 36 36">
  <g id="settings" transform="translate(-1255 -198)">
    <rect id="Rectangle_17" data-name="Rectangle 17" width="36" height="36" rx="18" transform="translate(1255 198)" fill="#f1f7ff"/>
    <g id="Setting" transform="translate(1264 206.98)">
      <path id="Path_786" data-name="Path 786" d="M9.585,18.02H8.418a1.062,1.062,0,0,1-.9-.5c-.085-.133-.6-1-.864-1.513l-.933-.383c-.569.18-1.593.436-1.682.457a1.066,1.066,0,0,1-.992-.284l-.826-.826a1.064,1.064,0,0,1-.284-.992c.036-.155.281-1.132.457-1.682l-.383-.929C1.471,11.1.571,10.55.5,10.505a1.062,1.062,0,0,1-.5-.9V8.435a1.062,1.062,0,0,1,.5-.9c.133-.085,1-.6,1.513-.864l.383-.929c-.18-.569-.436-1.593-.457-1.682a1.066,1.066,0,0,1,.284-.992l.826-.826a1.064,1.064,0,0,1,.992-.284c.155.036,1.132.281,1.682.457l.929-.383c.274-.54.819-1.44.864-1.512a1.062,1.062,0,0,1,.9-.5H9.582a1.062,1.062,0,0,1,.9.5c.085.133.6,1,.864,1.513l.929.383c.569-.18,1.593-.436,1.682-.457a1.066,1.066,0,0,1,.992.284l.826.826a1.064,1.064,0,0,1,.284.992c-.036.155-.281,1.132-.457,1.682l.383.929c.54.274,1.44.819,1.512.864a1.062,1.062,0,0,1,.5.9V9.6a1.062,1.062,0,0,1-.5.9c-.133.085-1,.6-1.513.864l-.376.933c.18.569.436,1.593.457,1.682a1.066,1.066,0,0,1-.284.992l-.826.826a1.066,1.066,0,0,1-.992.284c-.155-.036-1.132-.281-1.682-.457l-.929.383c-.274.54-.819,1.44-.864,1.512a1.062,1.062,0,0,1-.9.5ZM5.749,14.556l1.633.679.081.18c.166.36.763,1.372.9,1.579a.068.068,0,0,0,.059.032H9.589a.068.068,0,0,0,.059-.032c.106-.169.72-1.2.9-1.579l.081-.18,1.638-.679.18.067c.373.137,1.509.428,1.748.486a.061.061,0,0,0,.063-.018l.826-.826A.063.063,0,0,0,15.1,14.2c-.045-.193-.337-1.354-.486-1.748l-.067-.18.675-1.635.18-.081c.36-.166,1.372-.763,1.579-.9a.068.068,0,0,0,.032-.059V8.431a.068.068,0,0,0-.032-.059h0c-.169-.106-1.2-.72-1.579-.9l-.18-.081-.679-1.638.067-.18c.137-.373.428-1.509.486-1.748a.068.068,0,0,0-.018-.063l-.826-.826a.063.063,0,0,0-.063-.018c-.193.045-1.35.337-1.748.486l-.18.067-1.642-.675-.081-.18c-.166-.36-.763-1.372-.9-1.579A.068.068,0,0,0,9.582,1H8.422a.068.068,0,0,0-.059.032c-.106.169-.72,1.2-.9,1.579l-.081.18-1.638.679-.18-.067C5.19,3.27,4.054,2.978,3.815,2.92a.061.061,0,0,0-.063.018l-.826.826a.063.063,0,0,0-.018.063c.045.193.337,1.354.486,1.748l.067.18L2.785,7.4l-.18.081c-.36.166-1.372.763-1.579.9a.068.068,0,0,0-.032.059V9.605a.068.068,0,0,0,.032.059c.169.106,1.2.72,1.579.9l.18.081.679,1.638-.067.18c-.137.373-.428,1.509-.486,1.748a.068.068,0,0,0,.018.063l.826.826a.063.063,0,0,0,.063.018c.193-.045,1.35-.337,1.748-.486ZM9,13.224a4.206,4.206,0,1,1,4.206-4.206A4.206,4.206,0,0,1,9,13.224ZM9,5.808a3.21,3.21,0,1,0,3.21,3.21A3.21,3.21,0,0,0,9,5.808Z" fill="#2149b9"/>
    </g>
  </g>
</svg>
