<svg xmlns="http://www.w3.org/2000/svg" width="35" height="35" viewBox="0 0 35 35">
  <g id="wallet" transform="translate(-335 -176)">
    <rect id="Rectangle_74" data-name="Rectangle 74" width="35" height="35" transform="translate(335 176)" fill="none"/>
    <g id="noun_Wallet_4034816_1_" data-name="noun_Wallet_4034816 (1)" transform="translate(338 177.5)">
      <g id="Group_9" data-name="Group 9">
        <path id="Path_12" data-name="Path 12" d="M16,14.5v3a3,3,0,0,0,3,3h7a2.77,2.77,0,0,0,1-.18V22.5a3,3,0,0,1-3,3H6a3,3,0,0,1-3-3V9.5a3,3,0,0,1,3-3H24a3,3,0,0,1,3,3v2.18a2.77,2.77,0,0,0-1-.18H19a3,3,0,0,0-3,3Z" fill="#fff"/>
        <path id="Path_13" data-name="Path 13" d="M26,13.5H19a1,1,0,0,0-1,1v3a1,1,0,0,0,1,1h7a1,1,0,0,0,1-1v-3A1,1,0,0,0,26,13.5Zm-4.5,4A1.5,1.5,0,1,1,23,16,1.5,1.5,0,0,1,21.5,17.5Z" fill="#fff"/>
      </g>
    </g>
  </g>
</svg>
